<?xml version="1.0" standalone="no"?>
<!DOCTYPE svg PUBLIC "-//W3C//DTD SVG 20010904//EN"
 "http://www.w3.org/TR/2001/REC-SVG-20010904/DTD/svg10.dtd">
<svg version="1.0" xmlns="http://www.w3.org/2000/svg"
 width="550.000000pt" height="550.000000pt" viewBox="0 0 550.000000 550.000000"
 preserveAspectRatio="xMidYMid meet">
<metadata>
Created by potrace 1.11, written by Peter Selinger 2001-2013
</metadata>
<g transform="translate(0.000000,550.000000) scale(0.100000,-0.100000)"
fill="#000000" stroke="none">
<path d="M617 4979 c-56 -13 -108 -43 -149 -86 -140 -145 -94 -384 91 -475
l46 -23 2155 0 2155 0 46 23 c188 92 232 337 86 480 -23 23 -64 51 -92 64
l-50 23 -2125 2 c-1218 0 -2141 -3 -2163 -8z"/>
<path d="M590 4007 c-64 -18 -117 -53 -151 -100 -62 -86 -59 -5 -59 -1562 0
-1569 -4 -1479 63 -1567 20 -27 55 -54 92 -73 l59 -30 400 3 c221 1 455 7 521
13 481 41 877 263 1192 669 144 185 244 412 296 665 18 93 22 143 22 325 0
239 -16 347 -76 531 -159 482 -564 888 -1049 1050 -221 74 -284 80 -805 85
-354 3 -470 1 -505 -9z m1000 -561 c221 -46 402 -149 572 -324 184 -190 276
-378 309 -627 14 -105 7 -279 -15 -381 -80 -373 -368 -697 -730 -820 -126 -43
-214 -54 -507 -61 l-279 -6 0 1123 0 1123 288 -6 c200 -4 310 -11 362 -21z"/>
<path d="M1255 3081 c-48 -12 -72 -28 -97 -68 l-23 -38 0 -615 c0 -597 1 -616
20 -649 11 -19 33 -43 48 -55 27 -20 40 -21 250 -20 179 0 235 4 287 18 249
67 441 260 512 513 30 109 30 277 0 386 -83 295 -317 495 -617 527 -103 11
-336 11 -380 1z m477 -338 c124 -58 216 -180 238 -316 30 -187 -67 -370 -236
-449 -61 -29 -80 -32 -181 -36 l-113 -5 0 423 0 423 113 -5 c100 -4 120 -8
179 -35z"/>
<path d="M4000 4010 c-306 -27 -594 -135 -836 -315 -78 -59 -274 -246 -274
-263 0 -5 21 -40 46 -78 61 -93 146 -268 185 -384 30 -89 49 -129 49 -103 0 6
28 53 61 104 112 170 307 335 486 409 167 70 313 90 651 90 l212 0 0 -1122 0
-1121 -281 6 c-225 6 -302 11 -382 28 -284 58 -530 228 -695 482 -28 42 -52
83 -55 90 -6 18 -9 12 -47 -103 -40 -120 -118 -284 -184 -384 -25 -38 -43 -74
-39 -80 22 -37 89 -109 160 -171 274 -240 587 -374 945 -404 62 -6 295 -11
518 -12 368 -2 409 -1 447 15 54 23 135 111 151 163 17 58 17 2918 0 2976 -16
52 -97 140 -151 163 -38 17 -76 19 -457 20 -228 1 -458 -2 -510 -6z"/>
</g>
</svg>
